<svg height="512" viewBox="0 0 512 512" width="512" xmlns="http://www.w3.org/2000/svg"><g id="_29_Eight_of_Heart" data-name="29 Eight of Heart"><path d="m451.24 130.21-22.53-13v161.1l42.49-73.6a54.58 54.58 0 0 0 -19.96-74.5z"/><path d="m267.36 24a54.53 54.53 0 0 0 -70.05 13.41h93.28z"/><path d="m35.38 348.72a54.16 54.16 0 0 0 25.41 33.1l22.54 13v-161.08l-42.49 73.61a54.16 54.16 0 0 0 -5.46 41.37z"/><path d="m244.68 488a54.59 54.59 0 0 0 70-13.41h-93.24z"/><path d="m195.88 144a13.85 13.85 0 0 0 10.39-4.18 14.9 14.9 0 0 0 4-10.84 13.64 13.64 0 0 0 -4.1-10.26q-4.09-4-10.78-4a13.55 13.55 0 0 0 -10.12 4 14.14 14.14 0 0 0 -4 10.35 14.52 14.52 0 0 0 4.19 10.58 13.93 13.93 0 0 0 10.42 4.35z"/><path d="m217 186.39a17.79 17.79 0 0 0 -5.89-13.59 20.71 20.71 0 0 0 -14.7-5.49 21.93 21.93 0 0 0 -15.16 5.49 16.91 16.91 0 0 0 -6.15 13 17.75 17.75 0 0 0 5.8 13.42q5.79 5.47 15.24 5.48t15.2-5.13a17 17 0 0 0 5.66-13.18z"/><path d="m362.18 49.45h-212.33a54.58 54.58 0 0 0 -54.52 54.55v304.06a54.57 54.57 0 0 0 54.52 54.52h212.33a54.58 54.58 0 0 0 54.53-54.52v-304.06a54.59 54.59 0 0 0 -54.53-54.55zm-205.87 160.06a41.34 41.34 0 0 1 -5.62-21.46 39.76 39.76 0 0 1 4.5-18.86 43.54 43.54 0 0 1 10.15-12.52 4.22 4.22 0 0 0 .45-5.89 40.71 40.71 0 0 1 -6-9.49 34.62 34.62 0 0 1 -3-14.2 36.12 36.12 0 0 1 4.95-18.66 34.05 34.05 0 0 1 13.86-13.09 43.63 43.63 0 0 1 20.59-4.68 41.86 41.86 0 0 1 20.23 4.72 34.79 34.79 0 0 1 13.77 13.4 36.56 36.56 0 0 1 5 18.66 32.27 32.27 0 0 1 -2.63 13.05 43.52 43.52 0 0 1 -6.54 10 4.26 4.26 0 0 0 .64 6.08 39.33 39.33 0 0 1 10.09 12 40.09 40.09 0 0 1 4.86 19.4 40.71 40.71 0 0 1 -5.61 21.03 36.77 36.77 0 0 1 -15.2 14.49q-9.54 4.86-24.33 4.86-15.87 0-25.23-4.68a35.75 35.75 0 0 1 -14.93-14.16zm192.22 145.11-10.66 10.62-52.34 52.18a13.44 13.44 0 0 1 -19 0l-52.21-52.05-10.72-10.69a43.65 43.65 0 0 1 61.85-61.68l10.72 10.69 10.66-10.62a43.72 43.72 0 0 1 61.7 0 43.4 43.4 0 0 1 0 61.55z"/></g></svg>