<svg height="512" viewBox="0 0 64 64" width="512" xmlns="http://www.w3.org/2000/svg"><g id="Layer_2"><g><path d="m49 28.999h-5-23v-12.001c0-6.617 4.935-12 11-12s11 5.383 11 12v6c0 .552.447 1 1 1s1-.448 1-1v-6c0-7.72-5.832-14-13-14s-13 6.28-13 14v12.001h-4c-2.206 0-4 1.794-4 4v24.003c0 2.206 1.794 4 4 4h34c2.206 0 4-1.794 4-4v-24.003c0-2.206-1.794-4-4-4zm2 28.003c0 1.103-.897 2-2 2h-34c-1.103 0-2-.897-2-2v-24.003c0-1.103.897-2 2-2h5 24 5c1.103 0 2 .897 2 2z"/><path d="m32 38.002c-3.859 0-7 3.141-7 7s3.141 7 7 7 7-3.141 7-7-3.141-7-7-7zm0 12c-2.757 0-5-2.243-5-5s2.243-5 5-5 5 2.243 5 5-2.243 5-5 5z"/></g></g></svg>