<?xml version="1.0" encoding="utf-8"?>
<!-- Generator: Adobe Illustrator 16.0.0, SVG Export Plug-In . SVG Version: 6.00 Build 0)  -->
<!DOCTYPE svg PUBLIC "-//W3C//DTD SVG 1.1//EN" "http://www.w3.org/Graphics/SVG/1.1/DTD/svg11.dtd">
<svg version="1.1" id="Layer_1" xmlns="http://www.w3.org/2000/svg" xmlns:xlink="http://www.w3.org/1999/xlink" x="0px" y="0px"
	 width="5200px" height="2925px" viewBox="0 0 5200 2925" enable-background="new 0 0 5200 2925" xml:space="preserve">
<g>
	<polygon fill-rule="evenodd" clip-rule="evenodd" fill="#FFFFFF" points="2405.143,1784.012 2397.143,1876.009 2504.087,1871.41 
		2553.076,1889.112 2601.143,1825.204 2697.324,1867.966 2718.028,1863.757 2749.121,1832.005 2749.121,1808.078 2680.137,1789.094 
		2500.903,1791.057 	"/>
	<g>
		<path fill-rule="evenodd" clip-rule="evenodd" fill="#860B0D" d="M2772.247,1905.166c-16.745,16.602-37.135,25.486-60.365,27.855
			c-21.846,2.228-42.389-2.321-61.378-13.414c-2.349-1.373-4.673-1.459-7.166-1.459c-90.766,0.004-181.531-0.037-272.297,0.033
			c-19.808,0.016-35.088-7.923-45.308-24.973c-4.235-7.065-6.675-14.783-6.368-23.174c1.248-1.623,0.703-3.518,0.709-5.287
			c0.066-18.725,0.096-37.447,0.088-56.172c-0.002-2.723-0.115-5.291,3.857-3.461c0.043,3.653,0.086,7.307,0.128,10.96
			c-0.032,1.651-0.064,3.302-0.097,4.954c-1.46,1.531-0.88,3.447-0.887,5.204c-0.044,11.077,0.031,22.156-0.024,33.234
			c-0.031,6.282,0.803,12.452,1.999,18.593c2.343,7.68,3.289,15.438,9.123,22.268c8.656,10.135,19.192,15.5,31.713,15.547
			c88.276,0.328,176.555,0.216,264.831,0.111c8.971-0.011,17.921,0.344,26.952-0.719c10.602-1.248,21.447-1.49,32.049-1.705
			c20.209-0.412,40.638-3.257,60.786,1.356c0.744,0.171,1.723-0.002,2.408-0.364c5.003-2.641,11.264-2.935,14.917-8.16
			c0.846-1.209,2.595-1.399,4.126-1.486L2772.247,1905.166z"/>
		<path fill-rule="evenodd" clip-rule="evenodd" fill="#B65554" d="M2323.032,1775.026c5.876-17.552,24.847-30.773,44.857-30.858
			c32.813-0.139,65.629-0.057,98.444-0.059c58.466-0.005,116.934-0.183,175.397,0.235c6.999,0.05,12.268-3.291,17.569-5.894
			c14.135-6.941,28.82-9.625,44.281-9.559c11.771,0.051,23.218,2.06,34.154,6.363c21.162,8.33,38.414,21.613,50.713,40.967
			c0.346,0.542,0.488,1.213,0.725,1.824c-1.738-0.32-3.476-0.641-5.214-0.961c-0.569-0.026-1.138-0.053-1.708-0.08
			c-1.191-3.291-3.779-5.518-6.069-7.973c-2.9-3.752-6.229-7.076-9.967-9.994c-1.277-1.99-3.048-3.48-4.897-4.908
			c-13.662-10.543-28.859-17.195-46.131-19.322c-20.869-2.569-40.709,0.344-59.132,10.523c-4.755,2.627-9.257,3.814-14.574,3.81
			c-90.761-0.092-181.522-0.147-272.283,0.037c-11.301,0.022-22.05,2.84-30.06,11.875c-2.746,2.31-5.928,4.235-7.02,7.997
			c-2,1.92-2.656,5.076-5.615,6.117C2325.346,1775.121,2324.189,1775.073,2323.032,1775.026z"/>
		<path fill-rule="evenodd" clip-rule="evenodd" fill="#AC3030" d="M2323.032,1775.026c1.157,0.047,2.313,0.095,3.468,0.142
			c-0.043,1.293-0.082,2.586-0.123,3.881c-0.715,2.959-1.593,5.895-1.26,9c-1.997,3.522-0.547,7.332-0.914,10.988
			c-0.063,2.027-0.123,4.053-0.186,6.078c-3.971-1.83-3.857,0.738-3.855,3.461c0.008,18.725-0.021,37.447-0.088,56.172
			c-0.006,1.77,0.539,3.664-0.709,5.287c-0.089-19.896-0.278-39.794-0.22-59.689c0.026-8.605-0.618-17.233,0.772-25.826
			c0.377-2.33,0.988-4.459,1.992-6.534c0.262-0.204,0.357-0.47,0.289-0.794C2322.477,1776.469,2322.754,1775.748,2323.032,1775.026z
			"/>
		<path fill-rule="evenodd" clip-rule="evenodd" fill="#860B0D" d="M2802.008,1810.076c0.051,0.329,0.104,0.658,0.154,0.988
			c-0.186,0.314-0.145,0.596,0.122,0.846c0.236,1.389,0.474,2.777,0.71,4.166c-0.863,0.754-0.744,1.395,0.224,1.938
			c0.085,0.529,0.17,1.059,0.255,1.588c-0.258,2.846-0.984,5.727,0.606,8.439c0.872,24.729-6.228,46.828-21.823,66.123
			c0,0-0.287-0.272-0.285-0.271c0.119-0.654,0.033-1.457,0.385-1.943c6.626-9.165,11.456-19.248,14.771-29.996
			c1.677-5.438,5.136-10.855,1.921-16.919c0.028-0.657,0.057-1.315,0.084-1.974c2.432,0.178,3.064-1.147,3.027-3.334
			c-0.084-4.752-0.076-9.509,0-14.262c0.033-2.121-0.451-3.576-2.943-3.42c-0.054-2.031-0.107-4.063-0.161-6.094
			C2800.038,1813.993,2801.022,1812.034,2802.008,1810.076z"/>
		<path fill-rule="evenodd" clip-rule="evenodd" fill="#AC3030" d="M2802.008,1810.076c-0.985,1.958-1.97,3.917-2.953,5.877
			c-0.624-0.651-1.25-1.305-1.875-1.957c-0.004-3.919,0.321-7.929-2.967-10.961c0.521-4.117-1.724-7.439-3.152-10.998
			c-1.42-5.434-6.125-9.307-7.101-14.951c1.738,0.32,3.476,0.641,5.214,0.961
			C2795.516,1787.896,2800.045,1798.472,2802.008,1810.076z"/>
		<path fill-rule="evenodd" clip-rule="evenodd" fill="#860B0D" d="M2782.256,1894.164c-1.376,2.869-3.645,4.969-6.015,6.981
			c0,0-0.244-0.189-0.243-0.189c0.375-3.721,2.838-5.675,5.971-7.064L2782.256,1894.164z"/>
		<path fill-rule="evenodd" clip-rule="evenodd" fill="#AC3030" d="M2804.079,1828.041c-1.591-2.713-0.864-5.594-0.606-8.439
			C2804.657,1822.344,2804.194,1825.205,2804.079,1828.041z"/>
		<path fill-rule="evenodd" clip-rule="evenodd" fill="#AC3030" d="M2803.218,1818.014c-0.968-0.543-1.087-1.184-0.224-1.938
			C2803.068,1816.723,2803.144,1817.368,2803.218,1818.014z"/>
		<path fill-rule="evenodd" clip-rule="evenodd" fill="#B65554" d="M2322.199,1777.191c0.068,0.324-0.027,0.59-0.289,0.794
			C2322.007,1777.721,2322.103,1777.455,2322.199,1777.191z"/>
		<path fill-rule="evenodd" clip-rule="evenodd" fill="#AC3030" d="M2802.284,1811.91c-0.267-0.25-0.308-0.531-0.122-0.846
			c0.117,0.189,0.254,0.371,0.334,0.576C2802.518,1811.694,2802.359,1811.818,2802.284,1811.91z"/>
		<path fill-rule="evenodd" clip-rule="evenodd" fill="#860B0D" d="M2776.241,1901.146c-0.321,0.349-0.644,0.696-0.965,1.045
			l-0.2-0.202c0.307-0.345,0.613-0.688,0.921-1.032L2776.241,1901.146z"/>
		<path fill-rule="evenodd" clip-rule="evenodd" fill="#860B0D" d="M2775.276,1902.19c-0.325,0.342-0.649,0.683-0.976,1.024
			c0,0-0.225-0.228-0.226-0.229c0.333-0.332,0.667-0.665,1.001-0.998L2775.276,1902.19z"/>
		<path fill-rule="evenodd" clip-rule="evenodd" fill="#860B0D" d="M2774.301,1903.215c-0.344,0.324-0.688,0.646-1.031,0.971
			l-0.191-0.196c0.332-0.334,0.665-0.668,0.998-1.002L2774.301,1903.215z"/>
		<path fill-rule="evenodd" clip-rule="evenodd" fill="#860B0D" d="M2773.27,1904.186c-0.342,0.326-0.682,0.653-1.023,0.98
			c0.001,0-0.202-0.258-0.202-0.258c0.345-0.306,0.689-0.612,1.034-0.919L2773.27,1904.186z"/>
		<path fill-rule="evenodd" clip-rule="evenodd" fill="#980203" d="M2773.078,1903.989c-0.345,0.307-0.689,0.613-1.034,0.919
			c-1.531,0.087-3.28,0.277-4.126,1.486c-3.653,5.226-9.914,5.52-14.917,8.16c-0.686,0.362-1.664,0.535-2.408,0.364
			c-20.148-4.613-40.577-1.769-60.786-1.356c-10.602,0.215-21.447,0.457-32.049,1.705c-9.031,1.063-17.981,0.708-26.952,0.719
			c-88.276,0.104-176.555,0.217-264.831-0.111c-12.521-0.047-23.057-5.412-31.713-15.547c-5.834-6.83-6.78-14.588-9.123-22.268
			c5.25,3.057,10.698,2.868,16.631,2.172c12.053-1.414,24.2-1.984,36.381-1.838c3.738,0.046,6.978,1.951,10.674,1.657
			c17.023-1.354,34.083-1.882,51.153-1.939c3.95-0.014,7.927,1.075,11.85,0.868c14.854-0.788,29.668,0.723,44.649-1.193
			c9.365-1.197,19.484,0.057,29.26,0.164c3.104,0.035,6.402,2.634,9.148,0.375c2.875-2.366,0.308-6.436,1.805-9.457
			c2.908,9.717,4.147,10.116,13.108,4.256c0.683-0.445,1.412-0.82,2.12-1.228c0.292,1.573,0.177,2.946-1.431,3.874
			c-0.967,0.557-3.249-0.277-2.665,1.937c0.399,1.512,2.147,1.149,3.443,1.374c11.936,2.072,23.972,0.503,35.945,0.752
			c12.366,0.256,24.779-0.124,37.225-1.084c10.891-0.841,22.708-0.171,33.705,3.314c4.473,1.527,7.084,6.213,11.963,7.048
			c0.924,0.665,1.78,1.46,2.78,1.977c14.436,7.456,29.65,8.683,45.354,5.431c9.914-2.053,18.506-7.061,26.884-12.479
			c3.924,0.496,7.216-2.232,11.157-2.037c8.271,0.408,16.471-1.69,24.769-0.938c2.266,0.205,3.858-0.932,5.103-2.549
			c7.362-9.576,10.34-20.787,11.965-32.487c0.311-0.332,0.621-0.664,0.932-0.996c3.215,6.063-0.244,11.48-1.921,16.919
			c-3.314,10.748-8.145,20.831-14.771,29.996c-0.352,0.486-0.266,1.289-0.385,1.943c-3.135,1.389-5.598,3.343-5.973,7.063
			c-0.309,0.344-0.615,0.688-0.922,1.032c-0.334,0.333-0.668,0.666-1.001,0.998
			C2773.743,1903.321,2773.41,1903.655,2773.078,1903.989z"/>
		<path fill-rule="evenodd" clip-rule="evenodd" fill="#AE0203" d="M2536.689,1868.869c-1.497,3.021,1.07,7.091-1.805,9.457
			c-2.746,2.259-6.045-0.34-9.148-0.375c-9.775-0.107-19.895-1.361-29.26-0.164c-14.981,1.916-29.796,0.405-44.649,1.193
			c-3.923,0.207-7.899-0.882-11.85-0.868c-17.07,0.058-34.13,0.586-51.153,1.939c-3.696,0.294-6.936-1.611-10.674-1.657
			c-12.181-0.146-24.328,0.424-36.381,1.838c-5.933,0.696-11.381,0.885-16.631-2.172c-1.196-6.141-2.03-12.311-1.999-18.593
			c0.056-11.078-0.02-22.157,0.024-33.234c0.007-1.757-0.573-3.673,0.888-5.204c2.304,5.402,0.716,11.061,1.038,16.592
			c0.327,5.613,1.881,7.213,7.498,7.478c7.637,0.359,15.164-1.899,22.775-0.993c9.896,1.178,19.789,1.494,29.62-0.104
			c9.089-1.479,18.1,0.058,27.145,0.022c0.664,4.309-1.302,8.844,1.129,12.998c0.821,0.098,1.642,0.258,2.465,0.283
			c11.299,0.343,11.299,0.338,11.304-10.868c0.004-10.763,0.004-10.763,11.358-10.715c0.581-0.179,1.163-0.356,1.743-0.534
			c0.33-0.008,0.66-0.015,0.99-0.021c0.055,1.368,0.206,2.499,1.961,2.898c5.522,1.259,11.104,1.236,16.678,0.837
			c2.92-0.21,4.77-1.606,4.475-5.125c-0.186-2.195-0.781-4.618,0.732-6.704c0.076,7.455,0.188,14.91,0.222,22.365
			c0.041,8.656,0.022,8.391,8.474,8.718c4.597,0.179,5.562-1.577,5.5-5.751c-0.159-10.766,0.102-21.539,0.195-32.309
			c1.287,1.598,0.726,3.488,0.76,5.254c0.084,4.457,0.016,8.915,0.066,13.371c0.032,2.781,1.906,4.441,4.256,4.729
			c2.828,0.346,1.333-2.328,1.734-3.637c0.356-1.16,0.998-1.615,2.111-1.624c-1.887,6.058-1.477,11.696,3.02,16.592
			c0.379,1.59,1.355,2.329,3.005,2.114l-0.039-0.024c4.012,3.78,9.63,4.133,12.743,0.8c0.356-0.127,0.713-0.254,1.068-0.382
			c0.205,0.526,0.266,1.348,1.063,1.127c1.015-0.28,0.638-1.118,0.461-1.814l0.216-0.132c0.618,0.256,0.995,0.018,1.196-0.582
			l-0.016,0.012c1.271,0.075,2.543,0.15,3.814,0.226c0.108,0.319,0.217,0.64,0.324,0.959c2.355,2.716,6.719,2.919,10.048,0.468
			c0.952-0.271,2.044-0.324,2.374-1.547c0.67-2.779,0.949-4.752,5.021-2.617c5.99,3.141,10.895,0.523,12.652-5.576
			c5.375,9.023,2.039,11.965-3.93,15.828c-1.359,0.879-2.88,1.695-4.648,1.543c-2.005,1.216-2.165,2.439-0.017,3.674
			L2536.689,1868.869z M2437.391,1838.678c0.115-0.269,0.379-0.596,0.303-0.789c-0.074-0.191-0.492-0.248-0.76-0.363
			c-0.116,0.268-0.381,0.595-0.305,0.786C2436.705,1838.504,2437.121,1838.562,2437.391,1838.678z"/>
		<path fill-rule="evenodd" clip-rule="evenodd" fill="#CA0405" d="M2412.128,1844.022c-9.045,0.036-18.056-1.501-27.145-0.021
			c-9.831,1.599-19.724,1.282-29.62,0.104c-7.611-0.906-15.139,1.353-22.775,0.993c-5.617-0.265-7.171-1.864-7.498-7.478
			c-0.322-5.531,1.266-11.189-1.038-16.592c0.031-1.652,0.063-3.303,0.096-4.955c29.321,0.574,58.644-2.021,87.964,0.046
			C2412.117,1825.42,2412.122,1834.722,2412.128,1844.022z"/>
		<path fill-rule="evenodd" clip-rule="evenodd" fill="#DE1D1D" d="M2412.111,1816.121c-29.32-2.068-58.643,0.527-87.964-0.047
			c-0.042-3.652-0.085-7.306-0.128-10.959c0.061-2.025,0.121-4.051,0.184-6.077c25.306,0.007,50.613,0.014,75.92,0.019
			c12.059,0.003,12.059,0.001,12.017,11.956C2412.13,1812.716,2412.12,1814.418,2412.111,1816.121z"/>
		<path fill-rule="evenodd" clip-rule="evenodd" fill="#FB4A4A" d="M2339.139,1761.054c8.01-9.035,18.759-11.853,30.06-11.875
			c90.761-0.185,181.522-0.129,272.283-0.037c5.317,0.005,9.819-1.183,14.574-3.81c18.423-10.18,38.263-13.093,59.132-10.523
			c17.271,2.127,32.469,8.779,46.131,19.322c1.85,1.428,3.62,2.918,4.896,4.908c-13.885,3.079-27.975,2.218-41.973,1.637
			c-3.676-0.153-6.255,0.914-9.094,2.43c-3.008-0.092-6.015-0.184-9.021-0.275c-1.98-2.797-3.967-2.781-5.961-0.016
			c-3.341,0.1-6.681,0.199-10.021,0.299c-0.616-3.049-3.077-2-4.852-2.012c-12.036-0.082-24.074-0.043-36.111-0.043
			C2545.834,1761.057,2442.486,1761.055,2339.139,1761.054z"/>
		<path fill-rule="evenodd" clip-rule="evenodd" fill="#F23839" d="M2326.379,1779.049c0.039-1.295,0.078-2.588,0.121-3.881
			c2.963-1.041,3.619-4.197,5.62-6.117c4.728,1.172,9.543,1.086,14.358,1.008c20.528-0.334,41.057-0.865,61.586-0.936
			c16.614-0.057,33.234,0.385,49.847,0.68c31.171,0.553,62.363,0.301,93.561-0.531c34.784-0.928,69.612-0.262,104.421-0.143
			c3.881,0.013,7.979,0.151,11.248,2.946c-3.916,3.09-7.579,6.515-11.944,9.009c-2.629-1.646-5.471-2.154-8.577-2.06
			c-20.452,0.62-40.9-0.21-61.386,0.767c-19.9,0.947-39.915-0.291-59.864-0.487
			C2459.045,1778.652,2392.71,1779.052,2326.379,1779.049z"/>
		<path fill-rule="evenodd" clip-rule="evenodd" fill="#F84241" d="M2667.141,1772.075c-3.27-2.795-7.367-2.934-11.248-2.946
			c-34.809-0.119-69.637-0.785-104.421,0.143c-31.197,0.832-62.39,1.084-93.561,0.531c-16.612-0.295-33.232-0.736-49.847-0.68
			c-20.529,0.07-41.058,0.602-61.586,0.936c-4.815,0.078-9.631,0.164-14.358-1.008c1.091-3.762,4.272-5.688,7.019-7.997
			c103.348,0.001,206.695,0.003,310.043,0.005c12.037,0,24.075-0.039,36.111,0.043c1.774,0.012,4.235-1.037,4.852,2.011
			C2682.326,1765.713,2674.492,1768.275,2667.141,1772.075z"/>
		<path fill-rule="evenodd" clip-rule="evenodd" fill="#EC2F2F" d="M2783.96,1777.086c0.976,5.645,5.681,9.518,7.102,14.951
			c-10.614,0.47-21.292-1.002-31.858,1.014c-0.685-0.664-1.368-1.329-2.052-1.994c-1.628-4.398-5.766-6.945-8.03-10.875
			c0.311-3.396,2.831-3.117,5.186-3.121c9.316-0.018,18.631-0.037,27.947-0.055
			C2782.822,1777.033,2783.391,1777.06,2783.96,1777.086z"/>
		<path fill-rule="evenodd" clip-rule="evenodd" fill="#F84241" d="M2715.148,1763.105c2.839-1.516,5.418-2.583,9.094-2.43
			c13.998,0.581,28.088,1.442,41.973-1.637c3.738,2.918,7.067,6.242,9.968,9.994c-11.151,0.01-22.303,0.006-33.454,0.037
			c-2.102,0.006-4.464-0.529-5.599,2.107C2729.803,1768.486,2722.476,1765.796,2715.148,1763.105z"/>
		<path fill-rule="evenodd" clip-rule="evenodd" fill="#F23839" d="M2737.13,1771.179c1.135-2.638,3.497-2.103,5.599-2.108
			c11.151-0.031,22.303-0.027,33.454-0.037c2.29,2.455,4.878,4.682,6.069,7.973c-9.314,0.018-18.629,0.037-27.945,0.055
			c-2.354,0.004-4.875-0.274-5.186,3.12C2744.74,1777.691,2741.054,1774.276,2737.13,1771.179z"/>
		<path fill-rule="evenodd" clip-rule="evenodd" fill="#E42727" d="M2412.14,1811.012c0.042-11.954,0.042-11.952-12.017-11.955
			c-25.307-0.005-50.614-0.012-75.92-0.019c0.367-3.657-1.083-7.467,0.915-10.989c1.964,1.209,4.151,1.071,6.309,1.002
			c14.771-0.472,29.538,0.598,44.336-0.811c9.364-0.891,18.872,0.064,28.333,0.639c11.572,0.701,23.234-0.572,34.821-0.634
			c70.072-0.373,140.147-0.186,210.222-0.185c-1.64,4.105-4.329,7.541-7,10.989c-10.229-1.522-20.527-0.798-30.799-1.007
			c-19.205-0.389-38.397,0.618-57.617,0.139c-21.435-0.536-42.893-0.123-64.341-0.123c-7.974,0-7.974,0-10.098,6.96
			c-0.074-2.979-0.154-5.958-0.22-8.937c-0.029-1.366-0.021-2.947-1.897-2.836c-4.054,0.24-8.228-1.088-12.158,0.858
			c-1.239,1.22-0.823,2.8-0.853,4.247c-0.037,1.874-0.908,2.59-2.742,2.723c-3.117,0.225-6.22,0.664-9.328,1.014
			c-0.67-0.588-1.341-1.175-2.011-1.762c-0.305-0.941-1.059-1.187-1.932-1.246l-0.018-0.011c-0.525-0.314-1.051-0.629-1.576-0.943
			l-0.382-0.028c-0.445-0.257-0.891-0.514-1.336-0.77l0.148,0.17c-0.938-2.223-2.883-1.136-4.432-1.346l-0.18,0.317
			c-9.053-3.698-18-2.224-26.914,0.571c-0.11,0.034-0.154,0.28-0.229,0.428c-0.073,4.521-0.146,9.045-0.221,13.566
			C2412.717,1811.045,2412.428,1811.037,2412.14,1811.012z"/>
		<path fill-rule="evenodd" clip-rule="evenodd" fill="#EC2F2F" d="M2649.139,1788.061c-70.074-0.001-140.149-0.188-210.222,0.185
			c-11.587,0.062-23.249,1.335-34.821,0.634c-9.461-0.574-18.969-1.529-28.333-0.639c-14.798,1.408-29.565,0.339-44.336,0.811
			c-2.157,0.069-4.345,0.207-6.309-1.002c-0.334-3.105,0.544-6.041,1.259-9c66.333,0.003,132.668-0.396,198.992,0.255
			c19.949,0.196,39.964,1.435,59.864,0.487c20.485-0.977,40.934-0.146,61.386-0.767c3.106-0.095,5.948,0.413,8.576,2.06
			C2654.275,1784.363,2651.556,1786.08,2649.139,1788.061z"/>
		<path fill-rule="evenodd" clip-rule="evenodd" fill="#CA0405" d="M2799.047,1845.034c-0.311,0.332-0.621,0.664-0.932,0.996
			c-2.576,0.077-1.797,4.029-4.488,3.924c-5.584-0.219-11.182,2.329-16.589,0.866c-4.378-1.184-7.567-0.051-10.86,2.26
			c1.168-4.543,3.88-8.645,3.056-13.758c-0.682-4.232-1.994-5.156-5.821-3.083c-16.767,9.08-34.047,17.157-50.552,26.778
			c-12.567,7.324-25.812,13.5-38.834,20.027c-2.697,1.352-4.363,2.908-3.923,6.067c-4.879-0.835-7.49-5.521-11.963-7.048
			c-2.609-4.102-7.027-6.59-9.519-10.834c-2.643-4.502-2.087-6.689,2.436-9.152c6.403-3.486,12.993-6.722,19.002-10.803
			c3.25-2.207,6.233-3.624,10.077-3.176c0.44,4.688-0.94,9.488,0.876,14.09c0.321,1.012,0.851,2.069,2.044,1.308
			c4.774-3.048,10.583-4.507,14.266-9.233c3.025-0.148,5.531-1.201,7.015-4.033c3.71-0.372,6.777-1.896,8.966-4.997
			c2.064-0.353,4.191-0.601,5.032-3.004c3.05-0.081,5.516-1.181,6.995-4.003c3.443-0.127,6.236-1.877,8.848-3.829
			c1.121-0.837,3.17-2.252,0.148-3.541c-0.399-0.714-0.668-1.558-1.225-2.114c-1.318-1.314-4.316-1.791-3.34-4.235
			c0.837-2.095,3.613-2.402,5.684-2.353c5.453,0.132,9.965-1.974,14.396-4.836c2.515-1.624,5.6-2.311,8.58-2.175
			c3.432,0.157,6.138-1.108,8.705-3.075c1.881,1.438,3.908,2.098,6.371,2.047c7.891-0.166,15.787-0.098,23.682-0.119
			c0.625,0.652,1.251,1.306,1.875,1.957c0.053,2.029,0.106,4.061,0.16,6.093c-0.029,7.005-0.057,14.011-0.084,21.015
			C2799.104,1843.719,2799.075,1844.377,2799.047,1845.034z"/>
		<path fill-rule="evenodd" clip-rule="evenodd" fill="#980203" d="M2799.131,1843.061c0.027-7.004,0.055-14.01,0.084-21.015
			c2.492-0.157,2.977,1.298,2.943,3.419c-0.076,4.753-0.084,9.51,0,14.262C2802.195,1841.913,2801.563,1843.238,2799.131,1843.061z"
			/>
		<path fill-rule="evenodd" clip-rule="evenodd" fill="#E42727" d="M2759.203,1793.051c10.566-2.016,21.244-0.544,31.858-1.014
			c1.428,3.559,3.673,6.881,3.151,10.998c-1.64,0.152-3.279,0.295-4.917,0.457c-8.063,0.799-16.118,1.256-24.135-0.439
			C2763.175,1799.719,2761.189,1796.385,2759.203,1793.051z"/>
		<path fill-rule="evenodd" clip-rule="evenodd" fill="#DE1D1D" d="M2765.161,1803.053c8.017,1.695,16.072,1.238,24.135,0.439
			c1.638-0.162,3.277-0.305,4.917-0.457c3.288,3.032,2.963,7.042,2.967,10.961c-7.895,0.021-15.791-0.047-23.682,0.119
			c-2.463,0.051-4.49-0.609-6.371-2.047C2767.889,1808.754,2764.865,1806.266,2765.161,1803.053z"/>
		<path fill-rule="evenodd" clip-rule="evenodd" fill="#AE0203" d="M2680.137,1848.1c-3.844-0.448-6.827,0.969-10.077,3.176
			c-6.009,4.081-12.599,7.316-19.002,10.803c-4.522,2.463-5.078,4.65-2.436,9.152c2.491,4.244,6.909,6.732,9.519,10.834
			c-10.997-3.485-22.814-4.155-33.705-3.314c-12.445,0.96-24.858,1.34-37.225,1.084c-11.974-0.249-24.01,1.32-35.945-0.752
			c-1.296-0.225-3.044,0.138-3.443-1.374c-0.584-2.214,1.698-1.38,2.665-1.937c1.607-0.928,1.723-2.301,1.431-3.874l-0.012,0.047
			c0.391-0.356,0.78-0.712,1.17-1.067l-0.111,0.111c0.359-0.385,0.719-0.771,1.078-1.156l-0.125,0.127
			c0.367-0.388,0.735-0.774,1.104-1.162l-0.126,0.135c0.409-0.322,0.817-0.645,1.226-0.966c3.4-6.035,6.315-12.296,9.061-18.659
			c3.201-7.418,4.585-15.535,8.787-22.555c0.572,4.302-1.619,8.037-2.824,11.883c-0.918,2.932,0.159,3.549,2.32,4.018
			c3.788,0.82,7.678-0.58,11.271-0.212c12.434,1.272,24.848,0.346,37.262,0.567c13.123,0.235,13.008,0.051,13.2-12.807
			c0.061-4.041-1.118-8.244,0.952-12.146c1.227,0.919,1.148,3.172,3.479,3.034c3.968-0.234,7.949-0.25,11.926-0.323
			c9.58-0.178,18.912-2.99,28.537-2.676C2680.107,1828.094,2680.121,1838.097,2680.137,1848.1z"/>
		<path fill-rule="evenodd" clip-rule="evenodd" fill="#E90101" d="M2670.104,1889.112c-0.44-3.159,1.226-4.716,3.923-6.067
			c13.022-6.527,26.267-12.703,38.834-20.027c16.505-9.621,33.785-17.698,50.552-26.778c3.827-2.073,5.14-1.149,5.821,3.083
			c0.824,5.113-1.888,9.215-3.056,13.758c-1.004,4.721-3.356,8.762-5.705,12.955c-3.973,7.097-10.428,11.854-15.351,18.006
			c-8.378,5.418-16.97,10.426-26.884,12.479c-15.704,3.252-30.919,2.025-45.354-5.431
			C2671.884,1890.572,2671.027,1889.777,2670.104,1889.112z"/>
		<path fill-rule="evenodd" clip-rule="evenodd" fill="#AE0203" d="M2745.122,1884.041c4.923-6.151,11.378-10.909,15.351-18.006
			c2.349-4.193,4.701-8.234,5.705-12.955c3.293-2.311,6.482-3.443,10.86-2.26c5.407,1.463,11.005-1.085,16.589-0.866
			c2.691,0.105,1.912-3.847,4.488-3.924c-1.625,11.7-4.603,22.911-11.965,32.487c-1.244,1.617-2.837,2.754-5.103,2.549
			c-8.298-0.753-16.497,1.346-24.769,0.938C2752.338,1881.809,2749.046,1884.537,2745.122,1884.041z"/>
		<path fill-rule="evenodd" clip-rule="evenodd" fill="#CA0405" d="M2479.354,1820.096c-0.02-3.329-0.039-6.658-0.059-9.986
			c0.927,2.064,2.229,3.419,4.787,2.982c2.457-0.418,4.796,0.424,7.148,0.982c0.021,0.359,0.044,0.719,0.066,1.078
			c0,0-0.107,0.051-0.105,0.049c-2.033,1.59-1.339,3.205-0.039,4.826c0.289,3.641,1.092,5.661,5.506,3.363
			c3.666-1.908,7.975-2.168,12.129-1.181c2.27,0.539,4.169,2.048,3.928,4.438c-0.242,2.404-2.645,1.211-4.074,1.344
			c-4.307,0.396-8.432,1.48-12.512,2.826c-0.52-0.431-0.784-0.181-0.945,0.351c0,0,0.072-0.051,0.071-0.051
			c-0.929-0.011-1.743,0.165-1.998,1.239c0,0,0.167-0.167,0.165-0.166c-0.41,0.34-0.818,0.681-1.228,1.021
			c0,0,0.111-0.105,0.11-0.105c-0.382,0.348-0.764,0.694-1.146,1.041c-0.284,0.313-0.569,0.626-0.854,0.939
			c-0.344,0.412-0.688,0.824-1.031,1.236c0,0,0.156-0.174,0.155-0.174c-1.073,0.299-1.224,1.125-1.184,2.063l0.036-0.024
			c-1.113,0.009-1.755,0.464-2.111,1.624c-0.401,1.309,1.094,3.982-1.734,3.637c-2.35-0.287-4.224-1.947-4.256-4.729
			c-0.051-4.456,0.018-8.914-0.066-13.371C2480.079,1823.584,2480.641,1821.693,2479.354,1820.096z"/>
		<path fill-rule="evenodd" clip-rule="evenodd" fill="#CA0405" d="M2465,1823c-0.013,1.357-0.025,2.715-0.037,4.072
			c-1.514,2.086-0.918,4.509-0.732,6.704c0.295,3.519-1.555,4.915-4.475,5.125c-5.574,0.399-11.155,0.422-16.678-0.837
			c-1.755-0.399-1.906-1.53-1.961-2.898c9.025-2.789,14.708-8.541,16.059-18.13c1.895,1.354,0.123,3.928,2.208,5.83
			C2461.326,1819.056,2463.337,1819.285,2465,1823z"/>
		<path fill-rule="evenodd" clip-rule="evenodd" fill="#BB1616" d="M2527.559,1856.004c-1.266-7.401-0.531-14.865-0.649-22.301
			c-0.08-5.025-0.636-9.901-2.923-14.454c0.01-0.694,0.02-1.39,0.028-2.085c3.971,1.175,5.669-2.287,8.214-4.023
			c0.133,3.918,2.865,6.996,3.483,10.756c-7.563,0.42-7.564,0.42-7.562,8.134c0,3.819,0.125,7.644-0.029,11.456
			c-0.132,3.3,1.63,4.375,4.521,4.589c2.25,0.166,4.244-0.701,6.247-1.442c2.772-1.027,3.403-2.292,2.152-5.633
			c-1.927-5.146-4.97-10.076-4.929-15.869c3.674,7.305,6.448,14.972,9.119,22.68c-1.758,6.1-6.662,8.717-12.652,5.576
			C2528.508,1851.252,2528.229,1853.225,2527.559,1856.004z"/>
		<path fill-rule="evenodd" clip-rule="evenodd" fill="#BB1616" d="M2413.006,1811.035c0.084,15.329,0.168,30.658,0.251,45.986
			c-2.431-4.154-0.465-8.689-1.129-12.998c-0.006-9.302-0.011-18.604-0.017-27.903c0.009-1.702,0.019-3.404,0.028-5.107
			C2412.428,1811.037,2412.717,1811.045,2413.006,1811.035z"/>
		<path fill-rule="evenodd" clip-rule="evenodd" fill="#AC3030" d="M2494.267,1856.87c4.179,1.366,8.433,1.525,12.743,0.8
			C2503.896,1861.003,2498.278,1860.65,2494.267,1856.87z"/>
		<path fill-rule="evenodd" clip-rule="evenodd" fill="#BB1616" d="M2515.137,1857.083c3.35,0.155,6.699,0.312,10.049,0.468
			C2521.855,1860.002,2517.492,1859.799,2515.137,1857.083z"/>
		<path fill-rule="evenodd" clip-rule="evenodd" fill="#AC3030" d="M2510.998,1855.898c0.766-1.04,1.625-2.345,2.903-2.25
			c0.967,0.072,1.12,1.436,0.911,2.476C2513.541,1856.049,2512.27,1855.974,2510.998,1855.898z"/>
		<path fill-rule="evenodd" clip-rule="evenodd" fill="#CA0405" d="M2437.39,1838.678c-0.269-0.116-0.685-0.174-0.761-0.366
			c-0.076-0.191,0.188-0.519,0.305-0.786c0.268,0.115,0.686,0.172,0.76,0.363C2437.77,1838.082,2437.506,1838.409,2437.39,1838.678z
			"/>
		<path fill-rule="evenodd" clip-rule="evenodd" fill="#AC3030" d="M2491.301,1854.78c1.002,0.705,2.003,1.409,3.005,2.114
			C2492.656,1857.109,2491.68,1856.37,2491.301,1854.78z"/>
		<path fill-rule="evenodd" clip-rule="evenodd" fill="#AC3030" d="M2508.078,1857.288c0.508-0.229,1.016-0.458,1.523-0.687
			c0.177,0.695,0.554,1.533-0.461,1.813C2508.344,1858.636,2508.283,1857.814,2508.078,1857.288z"/>
		<path fill-rule="evenodd" clip-rule="evenodd" fill="#980203" d="M2536.654,1865.182c-0.007,1.225-0.014,2.449-0.019,3.674
			C2534.489,1867.621,2534.649,1866.397,2536.654,1865.182z"/>
		<path fill-rule="evenodd" clip-rule="evenodd" fill="#CA0405" d="M2438.384,1835.722c0.581-0.179,1.163-0.356,1.744-0.534
			C2439.547,1835.365,2438.965,1835.543,2438.384,1835.722z"/>
		<path fill-rule="evenodd" clip-rule="evenodd" fill="#AC3030" d="M2509.817,1856.469c0.399-0.193,0.798-0.388,1.197-0.582
			C2510.813,1856.486,2510.436,1856.725,2509.817,1856.469z"/>
		<path fill-rule="evenodd" clip-rule="evenodd" fill="#AC3030" d="M2649.139,1788.061c2.417-1.98,5.137-3.697,6.057-6.977
			c4.366-2.494,8.029-5.919,11.945-9.009c7.352-3.8,15.186-6.362,23.004-8.963c3.341-0.099,6.681-0.198,10.021-0.296
			c1.987,0.006,3.974,0.01,5.962,0.014c3.007,0.092,6.014,0.184,9.021,0.275c7.327,2.69,14.654,5.381,21.981,8.072
			c3.924,3.099,7.61,6.514,11.991,9.003c2.265,3.931,6.402,6.478,8.03,10.876c-0.05,1.753-1.093,2.828-2.631,3.25
			c-4.781,1.312-9.402,3.381-14.4,3.689c-4.38,0.271-8.726,2.383-13.187,0.265c-6.67-3.167-13.349-5.763-20.644-1.44
			c-1.955,1.159-4.399,1.234-6.777,1.305c-4.962,0.147-8.335,2.699-9.901,7.488c-1.875-0.983-3.833-1.837-5.602-2.983
			c-2.031-1.316-2.509-0.226-2.801,1.477c-1.16-0.856-2.016-1.931-3.758-2.114c-6.376-0.668-12.62,0.828-18.951,0.842
			c-5.533,0.012-11.128,1.773-16.526-0.83c0.055-0.985,0.11-1.97,0.165-2.954C2644.81,1795.602,2647.499,1792.166,2649.139,1788.061
			z"/>
		<path fill-rule="evenodd" clip-rule="evenodd" fill="#F84241" d="M2706.127,1762.83c-1.988-0.004-3.975-0.008-5.962-0.014
			C2702.16,1760.049,2704.146,1760.033,2706.127,1762.83z"/>
		<path fill-rule="evenodd" clip-rule="evenodd" fill="#BB1616" d="M2689.611,1805.613c1.566-4.789,4.939-7.341,9.901-7.488
			c2.378-0.07,4.822-0.146,6.777-1.305c7.295-4.322,13.974-1.727,20.644,1.44c4.461,2.118,8.807,0.006,13.187-0.265
			c4.998-0.309,9.619-2.378,14.4-3.689c1.538-0.422,2.581-1.497,2.631-3.25c0.684,0.665,1.367,1.33,2.052,1.994
			c1.986,3.334,3.972,6.668,5.958,10.002c-0.296,3.213,2.728,5.701,1.966,9.016c-2.567,1.967-5.273,3.232-8.705,3.075
			c-2.98-0.136-6.065,0.551-8.58,2.175c-4.432,2.862-8.943,4.968-14.396,4.836c-2.07-0.05-4.847,0.258-5.684,2.353
			c-0.977,2.444,2.021,2.921,3.34,4.235c0.557,0.557,0.825,1.4,1.225,2.114l-0.221,0.237c-11.086-5.852-22.634-10.876-32.852-18.288
			c-0.219-3.147-2.216-3.731-4.864-3.374c-0.737-0.43-1.476-0.859-2.214-1.289c-0.508-0.309-1.015-0.618-1.521-0.928
			c-0.541-0.274-1.08-0.55-1.62-0.824c-0.168-0.684-0.556-1.012-1.28-0.793L2689.611,1805.613z"/>
		<path fill-rule="evenodd" clip-rule="evenodd" fill="#DE1D1D" d="M2642.139,1799.05c-0.055,0.984-0.11,1.969-0.164,2.954
			c-3.732,2.033-2.729,5.64-2.933,8.847c-1.786,0.396-1.91,1.79-1.944,3.237c-3.413,1.688-6.813-0.127-10.228-0.096
			c-16.286,0.15-32.575,0.059-48.862,0.053c-4.742-1.935-9.689-0.444-14.522-0.871c-0.15,0.061-0.345,0.079-0.447,0.186
			c-5.967,6.221-8.966,6.432-14.642,1.053c-0.201-0.191-0.618-0.156-0.935-0.227c-0.128-0.285-0.256-0.57-0.384-0.855
			c-4.943-2.164-9.914-1.795-14.9-0.166l0.051-0.023c-2.545,1.736-4.243,5.198-8.213,4.022c-0.431,0.149-0.863,0.3-1.295,0.45
			c0,0-0.031-0.104-0.03-0.105c0.075-0.742-0.233-1.057-0.979-0.883c0,0-0.111-0.112-0.11-0.114
			c0.146-0.756-0.155-1.046-0.903-0.868l0.094-0.376c0,0-0.146,0.358-0.145,0.356c0.064-1.453-0.791-1.43-1.814-1.133l0.314-0.068
			c0,0-0.313,0.091-0.313,0.089c-0.141-1.315-0.965-1.376-1.982-1.083c0,0,0.092,0.061,0.092,0.059
			c-0.247-0.912-0.939-1.188-1.781-1.416c-8.227-2.241-16.143-0.904-23.932,2.004c-2.353-0.559-4.691-1.4-7.148-0.982
			c-2.559,0.437-3.86-0.918-4.787-2.982c-0.004-1.697-0.008-3.394-0.011-5.09c2.124-6.961,2.124-6.961,10.098-6.961
			c21.448,0,42.906-0.413,64.341,0.123c19.22,0.479,38.412-0.527,57.617-0.139C2621.611,1798.252,2631.91,1797.527,2642.139,1799.05
			z"/>
		<path fill-rule="evenodd" clip-rule="evenodd" fill="#DE1D1D" d="M2465,1823c-1.663-3.715-3.674-3.944-5.616-0.134
			c-2.085-1.902-0.313-4.476-2.208-5.83c-0.15-5.511-1.432-10.634-5.09-14.948c3.108-0.35,6.211-0.789,9.328-1.014
			c1.834-0.133,2.705-0.849,2.742-2.723c0.029-1.447-0.387-3.027,0.853-4.247C2465.006,1803.736,2465.002,1813.368,2465,1823z"/>
		<path fill-rule="evenodd" clip-rule="evenodd" fill="#DE1D1D" d="M2440.369,1796.47c-9.086-0.7-18.145-0.701-27.143,0.998
			c0.074-0.146,0.118-0.393,0.229-0.427C2422.369,1794.246,2431.316,1792.771,2440.369,1796.47z"/>
		<path fill-rule="evenodd" clip-rule="evenodd" fill="#DE1D1D" d="M2444.98,1797.498c-1.59-0.074-3.198-0.094-4.432-1.347
			C2442.098,1796.362,2444.042,1795.275,2444.98,1797.498z"/>
		<path fill-rule="evenodd" clip-rule="evenodd" fill="#DE1D1D" d="M2450.075,1800.326c-0.644-0.416-1.288-0.832-1.933-1.246
			C2449.017,1799.14,2449.771,1799.385,2450.075,1800.326z"/>
		<path fill-rule="evenodd" clip-rule="evenodd" fill="#DE1D1D" d="M2446.168,1798.098c-0.611,0.033-1.133-0.09-1.334-0.771
			C2445.277,1797.584,2445.723,1797.841,2446.168,1798.098z"/>
		<path fill-rule="evenodd" clip-rule="evenodd" fill="#DE1D1D" d="M2448.126,1799.069c-0.524-0.313-1.05-0.628-1.575-0.942
			C2447.075,1798.44,2447.601,1798.755,2448.126,1799.069z"/>
		<path fill-rule="evenodd" clip-rule="evenodd" fill="#BB1616" d="M2639.041,1810.848c0.205-3.204-0.799-6.811,2.934-8.844
			c5.397,2.604,10.992,0.842,16.525,0.83c6.331-0.014,12.575-1.51,18.951-0.842c1.742,0.184,2.598,1.258,3.758,2.113
			c0.054,19.244,0.106,38.489,0.16,57.734l-0.357,0.35c-1.815-4.602-0.435-9.402-0.875-14.09
			c-0.016-10.003-0.029-20.006-0.045-30.01c-0.43-2.037,1.447-5.224-1.874-5.809c-3.201-0.563-6.437-1.891-9.769-1.156
			c-8.188,1.804-16.473,0.535-24.701,0.929C2642.045,1812.135,2640.455,1811.855,2639.041,1810.848z"/>
		<path fill-rule="evenodd" clip-rule="evenodd" fill="#BB1616" d="M2697.324,1854.266c-3.685,4.725-9.493,6.184-14.268,9.231
			c-1.193,0.762-1.723-0.296-2.044-1.308c-0.001,0,0.356-0.35,0.356-0.35c5.83-1.436,10.123-5.92,15.677-7.906L2697.324,1854.266z"
			/>
		<path fill-rule="evenodd" clip-rule="evenodd" fill="#BB1616" d="M2734.326,1830.856c3.021,1.289,0.973,2.704-0.148,3.541
			c-2.611,1.952-5.404,3.702-8.848,3.829l-0.303-0.311c2.551-2.906,7.271-2.927,9.078-6.822L2734.326,1830.856z"/>
		<path fill-rule="evenodd" clip-rule="evenodd" fill="#BB1616" d="M2713.305,1845.234c-2.19,3.101-5.258,4.624-8.968,4.996
			l-0.287-0.293c2.72-2.136,5.7-3.816,8.907-5.1C2713.074,1844.969,2713.189,1845.102,2713.305,1845.234z"/>
		<path fill-rule="evenodd" clip-rule="evenodd" fill="#BB1616" d="M2704.337,1850.23c-1.483,2.832-3.989,3.885-7.015,4.033
			c0.002,0.002-0.276-0.33-0.276-0.33c2.087-1.768,4.419-3.103,7.004-3.996L2704.337,1850.23z"/>
		<path fill-rule="evenodd" clip-rule="evenodd" fill="#BB1616" d="M2725.33,1838.227c-1.479,2.822-3.945,3.922-6.995,4.003
			l-0.307-0.312c2.099-1.744,4.417-3.104,6.999-4.002L2725.33,1838.227z"/>
		<path fill-rule="evenodd" clip-rule="evenodd" fill="#BB1616" d="M2718.335,1842.229c-0.841,2.403-2.968,2.651-5.032,3.004
			c-0.113-0.132-0.229-0.265-0.346-0.396c1.43-1.428,3.152-2.344,5.071-2.92L2718.335,1842.229z"/>
		<path fill-rule="evenodd" clip-rule="evenodd" fill="#CA0405" d="M2578.008,1814.045c16.287,0.006,32.576,0.098,48.862-0.053
			c3.415-0.031,6.814,1.783,10.229,0.096c-0.315,1.322-0.632,2.645-0.948,3.967c-2.07,3.902-0.892,8.105-0.952,12.146
			c-0.192,12.857-0.077,13.042-13.2,12.807c-12.414-0.222-24.828,0.705-37.262-0.567c-3.594-0.368-7.483,1.032-11.271,0.212
			c-2.161-0.469-3.238-1.086-2.32-4.018c1.205-3.846,3.396-7.581,2.824-11.883
			C2574.285,1822.189,2576.539,1818.242,2578.008,1814.045z"/>
		<path fill-rule="evenodd" clip-rule="evenodd" fill="#980203" d="M2636.15,1818.055c0.316-1.322,0.633-2.645,0.948-3.967
			c0.033-1.447,0.157-2.842,1.943-3.237c1.413,1.005,3.003,1.284,4.706,1.203c8.229-0.394,16.513,0.875,24.701-0.929
			c3.332-0.734,6.567,0.594,9.769,1.156c3.321,0.585,1.444,3.771,1.874,5.809c-9.625-0.314-18.957,2.498-28.537,2.676
			c-3.977,0.073-7.958,0.089-11.926,0.323C2637.299,1821.227,2637.377,1818.974,2636.15,1818.055z"/>
		<path fill-rule="evenodd" clip-rule="evenodd" fill="#980203" d="M2554.896,1868.932c0.409-0.322,0.817-0.645,1.226-0.966
			C2555.713,1868.287,2555.305,1868.609,2554.896,1868.932z"/>
		<path fill-rule="evenodd" clip-rule="evenodd" fill="#980203" d="M2553.918,1869.959c0.367-0.387,0.734-0.773,1.103-1.16
			C2554.653,1869.185,2554.285,1869.571,2553.918,1869.959z"/>
		<path fill-rule="evenodd" clip-rule="evenodd" fill="#980203" d="M2551.906,1871.944c0.391-0.356,0.779-0.712,1.17-1.067
			C2552.687,1871.232,2552.297,1871.588,2551.906,1871.944z"/>
		<path fill-rule="evenodd" clip-rule="evenodd" fill="#980203" d="M2552.965,1870.988c0.359-0.385,0.719-0.77,1.078-1.155
			C2553.684,1870.218,2553.324,1870.604,2552.965,1870.988z"/>
		<path fill-rule="evenodd" clip-rule="evenodd" fill="#CA0405" d="M2536.113,1825.131c-0.041,5.793,3.002,10.723,4.929,15.869
			c1.251,3.341,0.62,4.605-2.152,5.633c-2.003,0.741-3.997,1.608-6.247,1.442c-2.892-0.214-4.653-1.289-4.521-4.589
			c0.154-3.813,0.029-7.637,0.029-11.456c-0.003-7.714-0.002-7.714,7.562-8.134
			C2535.846,1824.309,2535.979,1824.72,2536.113,1825.131z"/>
		<path fill-rule="evenodd" clip-rule="evenodd" fill="#BB1616" d="M2547.462,1814.186c0.316,0.07,0.733,0.035,0.935,0.227
			c5.676,5.379,8.675,5.168,14.642-1.053c0.103-0.106,0.297-0.125,0.447-0.186c-2.565,8.723-3.882,17.834-8.482,27.58
			C2552.238,1831.013,2549.85,1822.6,2547.462,1814.186z"/>
		<path fill-rule="evenodd" clip-rule="evenodd" fill="#BB1616" d="M2532.178,1813.164c4.986-1.629,9.957-1.998,14.9,0.166
			C2542.111,1813.274,2537.145,1813.219,2532.178,1813.164z"/>
		<path fill-rule="evenodd" clip-rule="evenodd" fill="#DE1D1D" d="M2426.998,1815.885c0-0.497-0.137-1.044,0.023-1.484
			c0.896-2.483-2.146-6.324,2.254-7.528c5.627-1.538,11.592,0.897,13.344,5.091c1.65,3.947,0.347,8.666-3.094,11.113
			c-3.191,2.27-6.823,2.264-10.512,2.023c-1.828-0.12-2.05-1.31-2.041-2.748c0.013-2.155,0.003-4.311,0.003-6.467
			C2426.983,1815.885,2426.99,1815.885,2426.998,1815.885z"/>
		<path fill-rule="evenodd" clip-rule="evenodd" fill="#BB1616" d="M2510.563,1836.79c2.928-0.613,2.961,1.347,2.926,3.538
			c-0.077,4.922-2.983,8.348-7.291,8.234c-3.278-0.086-5.307-1.695-5.294-5.213
			C2500.916,1839.406,2504.756,1836.77,2510.563,1836.79z"/>
		<path fill-rule="evenodd" clip-rule="evenodd" fill="#AC3030" d="M2491.23,1814.074c7.789-2.908,15.705-4.245,23.932-2.004
			c0.842,0.229,1.534,0.504,1.781,1.416c-8.748-2.5-17.236-0.988-25.648,1.666
			C2491.274,1814.793,2491.252,1814.434,2491.23,1814.074z"/>
		<path fill-rule="evenodd" clip-rule="evenodd" fill="#AC3030" d="M2491.152,1820.027c-1.3-1.621-1.994-3.236,0.039-4.826
			C2490.311,1816.805,2491.42,1818.422,2491.152,1820.027z"/>
		<path fill-rule="evenodd" clip-rule="evenodd" fill="#AC3030" d="M2516.852,1813.428c1.018-0.293,1.842-0.232,1.982,1.083
			C2518.173,1814.15,2517.512,1813.789,2516.852,1813.428z"/>
		<path fill-rule="evenodd" clip-rule="evenodd" fill="#AE0203" d="M2488.245,1838.213c-0.04-0.938,0.11-1.764,1.184-2.063
			C2489.035,1836.838,2488.641,1837.525,2488.245,1838.213z"/>
		<path fill-rule="evenodd" clip-rule="evenodd" fill="#AC3030" d="M2518.832,1814.49c1.023-0.297,1.879-0.32,1.814,1.133
			C2520.041,1815.247,2519.437,1814.869,2518.832,1814.49z"/>
		<path fill-rule="evenodd" clip-rule="evenodd" fill="#AC3030" d="M2522.721,1817.613c0.432-0.15,0.864-0.301,1.295-0.45
			c-0.01,0.696-0.02,1.392-0.029,2.086C2523.563,1818.703,2523.143,1818.158,2522.721,1817.613z"/>
		<path fill-rule="evenodd" clip-rule="evenodd" fill="#AE0203" d="M2493.257,1832.357c0.255-1.074,1.069-1.25,1.998-1.239
			C2494.844,1831.942,2494.086,1832.206,2493.257,1832.357z"/>
		<path fill-rule="evenodd" clip-rule="evenodd" fill="#AC3030" d="M2521.711,1816.625c0.746-0.174,1.055,0.141,0.979,0.883
			C2522.363,1817.215,2522.037,1816.92,2521.711,1816.625z"/>
		<path fill-rule="evenodd" clip-rule="evenodd" fill="#AE0203" d="M2495.184,1831.169c0.161-0.531,0.426-0.781,0.945-0.351
			C2495.814,1830.936,2495.499,1831.052,2495.184,1831.169z"/>
		<path fill-rule="evenodd" clip-rule="evenodd" fill="#AE0203" d="M2492.194,1833.213c0.409-0.341,0.817-0.682,1.228-1.021
			C2493.014,1832.531,2492.604,1832.871,2492.194,1833.213z"/>
		<path fill-rule="evenodd" clip-rule="evenodd" fill="#AE0203" d="M2491.159,1834.148c0.382-0.347,0.764-0.693,1.146-1.041
			C2491.924,1833.454,2491.541,1833.801,2491.159,1834.148z"/>
		<path fill-rule="evenodd" clip-rule="evenodd" fill="#AE0203" d="M2489.273,1836.324c0.344-0.412,0.688-0.824,1.031-1.236
			C2489.961,1835.5,2489.617,1835.912,2489.273,1836.324z"/>
		<path fill-rule="evenodd" clip-rule="evenodd" fill="#AC3030" d="M2520.697,1815.643c0.748-0.178,1.049,0.112,0.903,0.868
			C2521.299,1816.223,2520.998,1815.932,2520.697,1815.643z"/>
		<path fill-rule="evenodd" clip-rule="evenodd" fill="#AC3030" d="M2701.254,1812.806c-1.85-0.796-4.271-0.767-4.863-3.375
			C2699.038,1809.074,2701.035,1809.658,2701.254,1812.806z"/>
		<path fill-rule="evenodd" clip-rule="evenodd" fill="#AC3030" d="M2691.034,1806.391c-0.426-0.266-0.853-0.531-1.279-0.795
			C2690.479,1805.379,2690.866,1805.707,2691.034,1806.391z"/>
		<path fill-rule="evenodd" clip-rule="evenodd" fill="#AC3030" d="M2694.176,1808.143c-0.506-0.309-1.014-0.617-1.521-0.927
			C2693.161,1807.524,2693.668,1807.834,2694.176,1808.143z"/>
	</g>
</g>
</svg>
