<svg id="Capa_1" enable-background="new 0 0 497 497" height="512" viewBox="0 0 497 497" width="512" xmlns="http://www.w3.org/2000/svg"><g><path d="m248.5 0v497c137.243 0 248.5-111.257 248.5-248.5s-111.257-248.5-248.5-248.5z" fill="#3b88f5"/><path d="m467 248.5c0-137.243-97.826-248.5-218.5-248.5-137.243 0-248.5 111.257-248.5 248.5s111.257 248.5 248.5 248.5c120.674 0 218.5-111.257 218.5-248.5z" fill="#28abfa"/><path d="m376.978 222.511c0-.01-170.201-98.276-170.201-98.276-5.165-2.975-11.132-4.359-17.1-3.951l-.005 256.432c5.968.407 11.935-.977 17.096-3.956l170.21-98.271c8.977-5.185 15.022-14.878 15.022-25.989s-6.045-20.804-15.022-25.989z" fill="#c4f3ff"/><path d="m348.935 274.489c7.807-5.185 13.065-14.878 13.065-25.989s-5.258-20.804-13.065-25.989c0-.01-148.026-98.276-148.026-98.276-3.439-2.278-7.288-3.626-11.233-3.951-4.417.301-8.834 1.579-12.927 3.942-9.623 5.556-14.994 15.638-14.996 26.004-.009.005-.009 196.537-.009 196.537.011 10.371 5.382 20.453 15.005 26.009 4.091 2.362 8.508 3.64 12.922 3.941 3.945-.325 7.793-1.675 11.23-3.956z" fill="#fff"/></g></svg>