<svg id="Layer_1" enable-background="new 0 0 100 100" height="512" viewBox="0 0 100 100" width="512" xmlns="http://www.w3.org/2000/svg"><g id="_x31_3.Skype"><path id="Icon_40_" d="m87.6 58.4c5.8-26-17-49.6-43.8-45.1-14.5-9-33.8 1.2-33.8 18.5 0 4 1.1 7.8 3 11-5.3 26.1 17.6 49.4 44.4 44.5 18.9 10 39.7-9.9 30.2-28.9zm-25.4 15.7c-7 2.9-18.6 2.9-25.6-.8-10-5.3-11.7-17.3-3.1-17.3 6.5 0 4.4 7.6 11 10.6 3 1.4 9.5 1.5 13.2-1s3.4-6.4 1.4-8.2c-5.3-4.9-20.6-3-27.6-11.6-3-3.7-3.6-10.3.1-15.1 6.5-8.4 25.6-8.9 33.8-2.6 7.6 5.9 5.5 13.6-.6 13.6-7.3 0-3.5-9.6-15.4-9.6-8.6 0-12 6.1-5.9 9.1 8.2 4.2 29.1 2.8 29.1 18.8 0 6.6-4.1 11.5-10.4 14.1z"/></g></svg>