<svg id="Capa_1" enable-background="new 0 0 512 512" height="512" viewBox="0 0 512 512" width="512" xmlns="http://www.w3.org/2000/svg"><g><g><g><path d="m150 301c-49.626 0-90-40.374-90-90s40.374-90 90-90 90 40.374 90 90-40.374 90-90 90z"/></g></g><g><g><path d="m300 481h-300v-30c0-82.71 67.29-150 150-150 85.978 0 150 70.236 150 150z"/></g></g><g><g><path d="m362 211c-49.626 0-90-40.374-90-90s40.374-90 90-90 90 40.374 90 90-40.374 90-90 90z"/></g></g></g><path d="m362 211c-56.778 0-106.481 31.663-131.933 78.593 17.904 8.889 34.349 20.832 48.688 35.587 18.528 19.066 32.386 41.49 40.989 65.819h192.256v-30c0-82.709-67.29-149.999-150-149.999z"/></svg>